<svg width="68" height="36" viewBox="0 0 68 36" fill="none" xmlns="http://www.w3.org/2000/svg">
<path d="M47.4477 8.02374L47.4133 7.978L47.3562 7.89795H38.9171V8.46971H47.0017C47.1732 8.29818 47.3333 8.13809 47.4477 8.02374Z" fill="#161616"/>
<path d="M20.5523 8.03515C20.6895 8.17237 20.8382 8.30959 20.9868 8.46969H29.0829V7.90936H20.6438C20.6095 7.9551 20.5866 8.00084 20.5523 8.03515Z" fill="#161616"/>
<path d="M48.5455 7.978C48.5455 7.978 47.9508 7.15467 47.0475 6.04547C46.1441 4.93626 46.1555 3.80419 46.1555 3.80419C46.1555 3.80419 44.223 2.98086 42.4963 2.30619C41.8216 2.67211 40.5637 2.98086 38.4597 2.6035C36.3556 2.22614 33.9657 2.27188 33.9657 2.27188C33.9657 2.27188 31.6329 2.24901 29.5289 2.62637C27.4362 3.00373 26.1669 2.69498 25.4923 2.32906C23.777 3.00373 21.833 3.82706 21.833 3.82706C21.833 3.82706 21.8445 4.9477 20.9411 6.06834C20.0492 7.16611 19.4545 7.98944 19.4545 7.98944C19.4545 7.98944 21.5472 9.78475 21.3185 10.5966C21.0897 11.4085 18.5626 19.4817 20.7238 23.8842C22.8851 28.2867 26.2241 30.8139 30.4208 31.6487C32.6621 32.0946 34 33.7299 34 33.7299C34 33.7299 35.3379 32.0832 37.5677 31.6372C41.7759 30.8025 45.1035 28.2753 47.2647 23.8728C49.426 19.4703 46.8988 11.4085 46.6587 10.5966C46.4185 9.78475 48.5455 7.978 48.5455 7.978ZM22.4963 4.44455C23.0909 4.19298 24.303 3.68984 25.4694 3.23243C26.3385 3.60979 27.6992 3.80419 29.6546 3.46113C31.6901 3.09521 33.9657 3.11808 33.9657 3.11808C36.4357 3.08378 40.4151 4.12437 42.5306 3.221C43.697 3.6784 44.9091 4.18155 45.5037 4.43312C45.721 5.75959 46.3728 6.39996 47.1618 7.38337H20.8496C21.6158 6.41139 22.279 5.75959 22.4963 4.44455ZM20.8496 8.66411C20.6667 8.46971 20.4951 8.29818 20.3122 8.12666L20.2436 8.05805L20.3007 7.978C20.3693 7.88652 20.4265 7.80647 20.4951 7.72643L20.5294 7.68069L47.4705 7.66925L47.5049 7.71499C47.5392 7.76073 47.5735 7.79504 47.5963 7.84078C47.6192 7.88652 47.6535 7.92083 47.6878 7.95513L47.7564 8.03518L47.6764 8.10379C47.5506 8.21814 47.3562 8.41254 47.1389 8.65267L47.1046 8.68698H20.8839L20.8496 8.66411ZM21.3528 23.7127C19.6489 20.2479 21.0097 14.496 22.0046 10.9168C22.2104 10.2078 21.7873 9.62466 21.2155 8.98429H46.773C46.2127 9.62466 45.801 10.2078 45.9954 10.9054C46.2013 11.6601 46.3728 12.289 46.59 13.1924L21.7759 24.5017C21.5929 24.193 21.5243 24.0672 21.3528 23.7127ZM46.6472 23.7127C44.5775 27.9323 41.4214 30.2993 37.442 31.0998C36.1612 31.3742 34.972 31.9917 34 32.8722C33.028 31.9803 31.8388 31.3628 30.558 31.0998C26.9788 30.3794 24.0514 28.3782 21.9931 24.902L46.7044 13.6727C47.4591 17.0232 47.9623 21.0483 46.6472 23.7127Z" fill="#161616"/>
<path d="M44.4631 5.70243L42.5191 5.50803V4.55892C42.5191 4.55892 41.7187 4.44457 40.3007 4.33022C38.8828 4.21587 37.8193 4.193 37.8193 4.193L37.8307 4.53605C37.8307 4.53605 37.7507 4.193 37.2018 4.14726C36.6529 4.10152 34.2973 4.0329 34.2973 4.0329V6.73159L32.8908 3.96429L31.6901 3.97573L30.3751 6.3771V5.85109C30.3751 5.5309 29.9634 5.54234 29.9291 5.54234C29.8948 5.54234 29.8833 5.47373 29.9291 5.47373C30.1807 5.40512 30.3408 5.17641 30.3179 4.92484C30.3179 4.47887 30.2493 4.14726 29.6089 4.14726C28.9685 4.14726 26.7273 4.33022 26.7273 4.33022V6.7659L25.2521 4.53605L24.0743 4.68471L22.4848 6.92599H23.4797L23.7313 6.54863H25.538L25.7667 6.92599L29.6089 6.91455C29.7804 6.92599 29.9634 6.86881 30.0892 6.74302C30.0777 6.89168 30.0892 6.90312 30.0892 6.90312L31.0497 6.91455L31.3013 6.44571H33.0966L33.3253 6.91455H35.1321V6.27419H36.5157C36.9502 6.27419 36.8702 6.54863 36.8702 6.54863V6.92599H37.7621V6.27419C37.7621 5.96544 37.3619 5.98831 37.3276 5.98831C37.2933 5.98831 37.2704 5.93113 37.339 5.93113C37.4077 5.93113 37.8422 5.89683 37.8422 5.10781V4.90197H39.02V6.90312H39.9234V5.01632C39.9234 5.01632 40.2093 5.01632 40.781 5.05063C41.3528 5.08493 41.6158 5.13067 41.6158 5.13067V6.91455H42.5077V6.13696C42.5077 6.13696 42.9422 6.15983 43.5597 6.19414C43.8571 6.20558 44.1658 6.22845 44.4631 6.27419V6.92599H45.3322V5.05063L44.4631 4.91341V5.70243ZM24.0629 6.04548L24.6461 5.14211L25.1835 5.98831L24.0629 6.04548ZM27.6078 4.90197C27.6078 4.90197 28.8999 4.82193 29.2201 4.82193C29.5403 4.82193 29.4259 5.24503 29.2201 5.25646C29.0143 5.2679 27.6078 5.27933 27.6078 5.27933V4.90197ZM29.2201 6.30849H27.5506L27.5735 5.9197C27.5735 5.9197 28.7856 5.86252 29.1858 5.85109C29.586 5.83965 29.4717 6.30849 29.2201 6.30849ZM31.6558 5.80535L32.239 4.74188L32.7764 5.80535H31.6558ZM36.6072 5.54234C36.1955 5.54234 35.1892 5.5309 35.1892 5.5309V4.76475C35.1892 4.76475 36.1155 4.79906 36.5729 4.79906C37.0303 4.79906 36.9731 5.06206 36.9731 5.22216C36.9731 5.38225 37.0303 5.54234 36.6072 5.54234Z" fill="#161616"/>
<path fill-rule="evenodd" clip-rule="evenodd" d="M36.0126 24.2845L37.1103 24.2616L38.0938 23.5869L38.0252 26.5143L36.6072 26.6287L35.9554 26.2399L36.0126 24.2845ZM35.8296 26.3885L36.4814 26.8116L37.9565 26.7316L35.6695 29.2587L34.7661 28.5155L34.5946 27.8179L35.8296 26.3885ZM34.446 27.9666L34.6175 28.6527L35.4294 29.4188L32.7536 29.8762L32.4448 29.1329L32.7078 28.5269L34.446 27.9666ZM32.4448 28.5269L32.239 29.1215L32.4677 29.9334L29.5975 27.452L30.2836 27.1547L32.4448 28.5269ZM29.7919 23.1524L30.1807 26.9031L28.3396 27.6006L29.7919 23.1524ZM37.4305 20.9225L39.4202 20.8997L39.7633 20.5681L39.7175 21.4714L37.6249 21.6201L37.8079 22.3062L39.7404 22.2376L40.0492 21.906L39.9806 22.8093L37.9794 22.8894L38.0938 23.301L37.0417 23.9871L36.0011 24.1358L35.841 23.9414L34.446 25.3365L33.6912 24.8105L34.2173 24.799L35.4294 23.3811L35.0292 22.8436L33.5883 24.2959L32.8336 23.7013H33.2796L34.5832 22.2833L34.2058 21.7802L32.7764 23.2096L32.0103 22.6835L32.4563 22.6378L33.7827 21.197L33.3939 20.6938L31.9988 22.1347L31.1641 21.6086L31.6329 21.6201L32.845 19.962L36.6644 18.201L38.9971 18.1896L39.2716 17.8694L39.0772 18.8528L36.8931 18.9786L37.0646 19.6075L39.1229 19.5618L39.466 19.253L39.3745 20.1564L37.2361 20.2936L37.4305 20.9225ZM31.6558 18.0752L32.8565 19.7219L26.1784 22.7636L25.2064 16.4285L29.8719 11.9917L28.4654 16.6229L30.7067 15.4337L28.534 18.8642L26.5443 19.173L27.4705 21.0369L31.6558 18.0752ZM34.9605 16.3371L36.5043 18.0752L32.9594 19.6875L32.6392 17.3662L34.0915 17.3205L34.9605 16.3371ZM43.4111 14.9305L36.6186 18.0295H36.6072L36.2184 15.9826L41.1469 14.7133L40.2893 12.8837L38.757 14.1873L34.7318 13.5926L37.0074 12.5863L32.6735 10.6424L39.203 10.002L43.4111 14.9305Z" fill="#161616"/>
</svg>
