<svg width="68" height="36" viewBox="0 0 68 36" fill="none" xmlns="http://www.w3.org/2000/svg">
<g clip-path="url(#clip0)">
<path fill-rule="evenodd" clip-rule="evenodd" d="M49.5 17.9997C49.5 26.5606 42.5606 33.5 34.0003 33.5C25.4399 33.5 18.5 26.5606 18.5 18.0003C18.5 9.43992 25.4399 2.5 34.0003 2.5C42.5606 2.5 49.5 9.43992 49.5 17.9997ZM49.1896 18.0003C49.1896 26.389 42.389 33.1896 34.0003 33.1896C25.6111 33.1896 18.8105 26.3884 18.8105 18.0003C18.8105 9.61105 25.6111 2.81047 34.0003 2.81047C42.3896 2.81047 49.1896 9.61105 49.1896 18.0003Z" fill="#161616"/>
<path fill-rule="evenodd" clip-rule="evenodd" d="M45.1661 18.0003C45.1661 24.1671 40.1665 29.1661 34.0003 29.1661C27.8335 29.1661 22.834 24.1671 22.834 18.0003C22.834 11.8335 27.8335 6.83394 34.0003 6.83394C40.1665 6.83394 45.1661 11.8335 45.1661 18.0003ZM34.11 28.8773H34.1306C34.1238 28.8773 34.1169 28.8772 34.11 28.8773ZM34.1306 28.8773C40.0805 28.8067 44.8772 23.9639 44.8772 18.0003C44.8772 12.0297 40.0666 7.18234 34.1301 7.12325L34.1306 28.8773ZM23.2086 19.3743C23.5693 22.2181 25.0395 24.8041 27.2989 26.5684L27.2972 19.3743H23.2086ZM27.2972 16.0771L27.2922 9.43712C25.2297 11.0548 23.7659 13.3881 23.2899 16.076L27.2972 16.0771ZM30.5938 16.0766H33.8698V7.12325C32.7573 7.13519 31.6533 7.31831 30.5966 7.66618L30.5938 16.0766ZM30.5921 28.3321C31.6501 28.6815 32.7557 28.8654 33.8698 28.8773V19.3738H30.5938L30.5921 28.3321Z" fill="#161616"/>
<path fill-rule="evenodd" clip-rule="evenodd" d="M22.4349 18.6647L21.9048 18.4362L21.9187 17.284L22.4538 17.0817L22.4644 16.1892L19.3852 17.3643L19.3741 18.2779L22.4243 19.5527L22.4349 18.6647ZM20.3266 17.8414V17.8325L21.3066 17.5025L21.2976 18.1987L20.3266 17.8414Z" fill="#161616"/>
<path d="M23.1094 12.3469L22.7242 13.2733L20.5174 12.3552L20.1957 13.1278L23.0258 14.3051L23.7326 12.6066L23.1094 12.3469Z" fill="#161616"/>
<path d="M24.0514 8.98449L23.6735 8.63889L24.3558 7.89194L23.8574 7.43709L22.611 8.80165L24.8736 10.8691L25.4383 10.2515L24.5497 9.4399L25.169 8.76208L24.6707 8.30666L24.0514 8.98449Z" fill="#161616"/>
<path fill-rule="evenodd" clip-rule="evenodd" d="M27.9523 8.1294L27.9015 7.5547L28.9222 7.01958L29.3547 7.39472L30.1452 6.98056L27.649 4.8278L26.8396 5.25199L27.1657 8.54134L27.9523 8.1294ZM27.6763 5.88299L27.6835 5.87908L28.4388 6.58422L27.8223 6.90753L27.6763 5.88299Z" fill="#161616"/>
<path fill-rule="evenodd" clip-rule="evenodd" d="M33.5599 6.44097L34.5984 6.35848L33.4902 5.18622C33.9395 5.07362 34.1575 4.689 34.124 4.26759C34.0728 3.61485 33.5688 3.36512 32.9345 3.41585L31.6881 3.51451L31.9306 6.56918L32.7645 6.5034L32.6714 5.32892L32.6798 5.32836L33.5599 6.44097ZM32.7115 4.81162L32.6307 4.81831L32.5705 4.05575L32.6513 4.05018C32.9233 4.02844 33.2338 4.05241 33.26 4.38463C33.2862 4.71741 32.9835 4.79044 32.7115 4.81162Z" fill="#161616"/>
<path fill-rule="evenodd" clip-rule="evenodd" d="M37.55 7.09427C38.5338 7.41089 39.4597 6.97443 39.7635 6.0296C40.0472 5.14776 39.4346 4.26647 38.5528 3.98275C37.6709 3.69902 36.6586 4.05632 36.3744 4.93872C36.0706 5.88299 36.5667 6.7771 37.55 7.09427ZM37.1556 5.56375C37.1471 5.44382 37.1627 5.3234 37.2015 5.20962C37.3314 4.80716 37.8398 4.56468 38.3158 4.71797C38.7913 4.87126 39.0628 5.36458 38.9334 5.76704C38.8985 5.88217 38.8409 5.98912 38.7639 6.08156C38.6869 6.174 38.5921 6.25005 38.4852 6.3052C38.3783 6.36035 38.2614 6.39348 38.1414 6.40263C38.0214 6.41178 37.9009 6.39676 37.7868 6.35847C37.6719 6.323 37.5653 6.26483 37.4734 6.18742C37.3814 6.11001 37.3058 6.01492 37.2513 5.9078C37.1967 5.80067 37.1642 5.68368 37.1556 5.56375Z" fill="#161616"/>
<path d="M43.5958 6.91534L42.996 6.35123L40.3794 8.13108L40.9926 8.69463L42.5082 7.67845L42.5144 7.68402L41.8421 9.47502L42.0846 9.703L43.8572 8.94881L43.8633 8.95439L42.9542 10.5536L43.5528 11.1372L45.1805 8.40867L44.5746 7.83787L42.948 8.55639L43.5958 6.91534Z" fill="#161616"/>
<path d="M46.4397 12.8218L46.913 12.6256L47.2943 13.5436L47.9175 13.2856L47.2157 11.5943L44.3851 12.7688L45.0863 14.46L45.7095 14.202L45.3282 13.2828L45.8165 13.0804L46.1783 13.9517L46.8015 13.693L46.4397 12.8218Z" fill="#161616"/>
<path fill-rule="evenodd" clip-rule="evenodd" d="M45.5005 17.6262C45.5367 18.6591 46.2614 19.3815 47.2525 19.347C48.1789 19.3146 48.7999 18.4389 48.7675 17.5136C48.7358 16.5877 48.0563 15.7572 47.1304 15.7884C46.1387 15.8229 45.4659 16.5938 45.5005 17.6262ZM46.8073 16.7365C46.9172 16.6878 47.0358 16.6617 47.156 16.6597C47.5785 16.6446 47.9788 17.0409 47.996 17.5404C48.0133 18.0393 47.641 18.4618 47.2184 18.4763C47.0983 18.4827 46.9782 18.4649 46.8651 18.4239C46.752 18.383 46.6483 18.3197 46.5602 18.238C46.472 18.1562 46.4011 18.0575 46.3518 17.9479C46.3025 17.8382 46.2757 17.7197 46.273 17.5995C46.2676 17.4794 46.2863 17.3594 46.328 17.2466C46.3697 17.1339 46.4336 17.0306 46.5159 16.943C46.5983 16.8554 46.6973 16.7852 46.8073 16.7365Z" fill="#161616"/>
<path d="M37.1865 11.7092H41.142V11.2973H37.1865V11.7092ZM37.1865 10.9539H41.142V10.6384H37.1865V10.9539ZM39.9747 10.4606C40.0401 10.4606 40.104 10.4412 40.1584 10.4049C40.2127 10.3685 40.2551 10.3169 40.2801 10.2565C40.3051 10.1961 40.3117 10.1297 40.2989 10.0655C40.2862 10.0014 40.2547 9.94251 40.2085 9.89629C40.1622 9.85006 40.1033 9.81858 40.0392 9.80582C39.9751 9.79307 39.9086 9.79961 39.8482 9.82463C39.7878 9.84965 39.7362 9.89202 39.6999 9.94638C39.6636 10.0007 39.6442 10.0646 39.6442 10.13C39.6443 10.2176 39.6792 10.3016 39.7412 10.3636C39.8031 10.4256 39.8871 10.4604 39.9747 10.4606ZM38.5327 26.5624C38.0812 26.5624 37.7161 26.2246 37.7161 25.7736C37.7161 25.3238 38.0812 24.9308 38.5327 24.9308L40.1252 24.9313C40.2975 24.9313 40.4363 24.792 40.4363 24.6197C40.4366 24.5366 40.4041 24.4568 40.3458 24.3975C40.2876 24.3382 40.2083 24.3043 40.1252 24.3031H37.5706C37.1739 24.303 36.7935 24.1453 36.513 23.8647C36.2326 23.5842 36.075 23.2037 36.075 22.807C36.075 21.9814 36.7445 21.3454 37.5706 21.3454L40.7016 21.3432C40.895 21.3432 41.0517 21.2417 41.0517 21.0494C41.0521 20.9558 41.0156 20.8657 40.9501 20.7988C40.8845 20.7319 40.7953 20.6936 40.7016 20.6921H37.5433C37.2432 20.6988 36.9448 20.6455 36.6656 20.5352C36.3864 20.425 36.132 20.2601 35.9174 20.0502C35.7028 19.8403 35.5323 19.5897 35.4159 19.313C35.2995 19.0363 35.2395 18.7392 35.2395 18.439C35.2395 18.1388 35.2995 17.8417 35.4159 17.565C35.5323 17.2883 35.7028 17.0377 35.9174 16.8278C36.132 16.6179 36.3864 16.453 36.6656 16.3428C36.9448 16.2326 37.2432 16.1792 37.5433 16.1859L40.5784 16.1881C40.8142 16.1881 41.0054 15.983 41.0054 15.7472C41.0054 15.5109 40.8142 15.3336 40.5784 15.3336L37.1581 15.3353C37.3231 14.6212 37.7902 14.5108 38.2016 14.5114H39.7947C39.8381 14.5115 39.8811 14.503 39.9213 14.4864C39.9614 14.4698 39.9979 14.4454 40.0286 14.4147C40.0593 14.384 40.0836 14.3476 40.1002 14.3074C40.1168 14.2673 40.1253 14.2243 40.1252 14.1808C40.1252 13.9991 39.9775 13.8787 39.7947 13.8787H38.2016C37.5154 13.8787 37.186 13.2745 37.1581 12.9456H38.8064C38.9435 12.5058 39.2183 12.2861 39.5204 12.2861H41.2785C41.8828 12.2861 42.1297 11.9015 42.1849 11.7365C42.5968 11.9288 44.0796 13.11 44.0796 15.0878C44.0796 17.0655 42.322 18.0817 41.2228 18.0895H37.5422C37.4495 18.0895 37.3606 18.1263 37.295 18.1919C37.2295 18.2574 37.1927 18.3463 37.1927 18.439C37.1927 18.5317 37.2295 18.6206 37.295 18.6861C37.3606 18.7517 37.4495 18.7885 37.5422 18.7885L41.0032 18.7857C42.0974 18.7857 42.9842 19.7077 42.9842 20.8014C42.9842 21.8956 42.0974 22.7552 41.0032 22.7552L37.7066 22.7513C37.619 22.7513 37.535 22.7861 37.4731 22.848C37.4111 22.9099 37.3763 22.9939 37.3763 23.0815C37.3763 23.1691 37.4111 23.2531 37.4731 23.3151C37.535 23.377 37.619 23.4118 37.7066 23.4118L40.2066 23.414C40.7964 23.414 41.2746 23.8923 41.2746 24.4826C41.2746 25.0735 40.7964 25.544 40.2066 25.544L38.6955 25.5484C38.6285 25.5484 38.5643 25.575 38.5169 25.6224C38.4696 25.6697 38.4429 25.734 38.4429 25.8009C38.4429 25.8679 38.4696 25.9321 38.5169 25.9795C38.5643 26.0268 38.6285 26.0534 38.6955 26.0534H39.856C40.2613 26.0551 40.7144 26.6521 39.8426 26.9821C39.8499 26.8104 39.822 26.5629 39.458 26.5629C39.0957 26.5635 38.5327 26.5624 38.5327 26.5624Z" fill="#161616"/>
<path d="M37.4406 14.1959C36.7951 14.498 36.6374 15.4038 36.6708 15.7199L35.765 16.3448C35.7358 16.3765 35.7004 16.4021 35.661 16.4198C35.6217 16.4376 35.5791 16.4472 35.5359 16.4481C35.4928 16.449 35.4498 16.4412 35.4098 16.4251C35.3697 16.409 35.3333 16.385 35.3027 16.3544C35.2722 16.3239 35.2481 16.2875 35.232 16.2475C35.2158 16.2074 35.2079 16.1645 35.2088 16.1213C35.2096 16.0782 35.2192 16.0356 35.2369 15.9962C35.2546 15.9568 35.2801 15.9214 35.3119 15.8921L35.8955 15.4863C36.1836 15.294 36.129 14.9785 36.0878 14.7176C36.0471 14.4567 35.7723 14.5799 35.6892 14.6764C35.5666 14.7996 35.3966 14.8759 35.2087 14.8759C34.833 14.8759 34.5287 14.585 34.5287 14.2092C34.5287 14.0748 34.5686 13.9434 34.6433 13.8316C34.718 13.7198 34.8241 13.6327 34.9483 13.5812C35.0725 13.5297 35.2092 13.5162 35.3411 13.5424C35.4729 13.5685 35.5941 13.6332 35.6892 13.7282C35.7717 13.8246 36.0471 13.9484 36.0878 13.6869C36.129 13.4261 36.1836 13.11 35.8955 12.9177L35.3119 12.5124C35.2821 12.4827 35.2585 12.4474 35.2424 12.4085C35.2263 12.3696 35.218 12.3279 35.218 12.2858C35.218 12.2438 35.2263 12.2021 35.2424 12.1632C35.2585 12.1243 35.2821 12.089 35.3119 12.0593C35.3416 12.0295 35.3769 12.0059 35.4158 11.9898C35.4547 11.9737 35.4964 11.9654 35.5384 11.9654C35.5805 11.9654 35.6222 11.9737 35.6611 11.9898C35.6999 12.0059 35.7353 12.0295 35.765 12.0593L36.6708 12.6841C36.6162 12.9461 36.7951 13.8937 37.4406 14.1959Z" fill="#161616"/>
</g>
<defs>
<clipPath id="clip0">
<rect width="31" height="31" fill="white" transform="translate(18.5 2.5)"/>
</clipPath>
</defs>
</svg>
