<?xml version="1.0" encoding="UTF-8"?>
<svg xmlns="http://www.w3.org/2000/svg" width="68" height="36" viewBox="0 0 68 36" fill="none">
  <g clip-path="url(#clip0_4925_2191)">
    <path d="M15.707 26.4956L22.8326 26.5008L30.4626 20.6403H43.4191L41.4967 26.5008H47.2601L49.1695 20.6403H55.666L60.4974 16.9214H50.3965L55.9428 0H50.1717L28.1671 16.9201H19.4674L21.8669 9.59742L7.5 20.639H23.3266L15.707 26.4943V26.4956ZM47.7813 7.32788L44.6435 16.9201H35.3031L47.7813 7.32788Z" fill="#161616"></path>
    <path d="M14.6308 35.8705H16.0775L11.7907 31.2178L7.50391 35.8705H8.9506L9.71619 35.0128H13.8665L14.6321 35.8705H14.6308ZM11.7907 32.6994L13.1334 34.2016H10.448L11.7907 32.6994ZM28.4244 32.1711H32.1471C32.8867 32.1711 33.1129 32.3971 33.1129 32.8737C33.1129 33.2923 32.7957 33.5506 32.1536 33.5506H28.4244V32.1711ZM38.8776 31.3586H37.6518V35.8705H38.8776V31.3586ZM49.0785 31.3586V34.1422L44.0066 31.3586H42.7679V35.8705H43.9027V32.5379L50.225 35.9984V31.3586H49.0772H49.0785ZM27.1987 31.3586V35.8705H28.4244V34.3618H32.3863C33.859 34.3618 34.4296 33.7495 34.4296 32.8415C34.4296 31.9334 33.807 31.3586 32.4448 31.3586H27.1987ZM19.9353 35.058V31.3586H18.7096V35.8705H24.2806L24.6238 35.058H19.9353ZM55.3436 35.058V33.982H60.318V33.1708H55.3436V32.1711H60.318V31.3586H54.1179V35.8705H60.253L60.4805 35.058H55.3436Z" fill="#161616"></path>
  </g>
  <defs>
    <clipPath id="clip0_4925_2191">
      <rect width="53" height="36" fill="white" transform="translate(7.5)"></rect>
    </clipPath>
  </defs>
</svg>
