<svg width="68" height="36" viewBox="0 0 68 36" fill="none" xmlns="http://www.w3.org/2000/svg">
<path d="M58.3354 6.69019C58.1751 6.39287 57.8323 6.37 57.7406 6.37H38.0028C37.4539 6.37 36.9965 6.53009 36.6535 6.87316C36.4247 7.10188 36.2418 7.42207 36.1503 7.78801C36.1503 7.78801 36.1274 7.87949 35.9445 7.87949H32.0563C31.8962 7.87949 31.8734 7.81088 31.8505 7.78801C31.759 7.42207 31.5989 7.10188 31.3473 6.87316C31.0271 6.55297 30.5468 6.37 29.9979 6.37H10.2829C10.1457 6.37 9.84837 6.39287 9.68825 6.69019C9.61964 6.82742 9.55103 7.05613 9.73401 7.3992L10.1 7.99385C10.2372 8.22256 10.4202 8.31405 10.7861 8.33692C10.7861 8.33692 10.9462 8.35979 11.0834 8.56563L11.4494 9.20603C11.518 9.34326 11.7009 9.70919 12.3413 9.80068C12.3642 9.80068 12.5243 9.82355 12.6387 10.0294L13.0961 10.8299C13.2333 11.0815 13.4163 11.173 13.7593 11.2873L22.0159 13.7117C22.2903 13.8031 22.4276 14.1233 22.4276 14.1233C22.6334 14.6265 22.885 15.0611 24.1657 15.4499L30.9128 17.2796C31.0043 17.3024 31.7819 17.5312 32.3536 16.9822L33.9318 15.4727C33.9318 15.4727 34.0004 15.4041 34.069 15.4041C34.1605 15.4041 34.2062 15.4727 34.2062 15.4727L35.7843 16.9822C36.379 17.554 37.1337 17.3024 37.2252 17.2796L43.9723 15.4499C45.2528 15.0611 45.5044 14.6494 45.7104 14.1233C45.7104 14.1233 45.8247 13.8031 46.1223 13.7117L54.3787 11.2873C54.6989 11.173 54.8818 11.0815 55.0418 10.8299L55.4993 10.0294C55.591 9.84642 55.7739 9.80068 55.7965 9.80068C56.414 9.70919 56.5973 9.36612 56.6886 9.20603L57.0545 8.56563C57.1688 8.35979 57.3291 8.33692 57.3521 8.33692C57.695 8.31405 57.8779 8.22256 58.0382 7.99385L58.4041 7.3992C58.4727 7.079 58.4041 6.82742 58.3354 6.69019ZM36.5162 7.90237C36.5848 7.58217 36.7221 7.35346 36.905 7.14762C37.1566 6.89603 37.5226 6.73593 37.98 6.73593H47.06C46.7397 6.96464 46.5794 7.26197 46.5794 7.28484C46.4651 7.49068 46.3509 7.69653 46.1909 7.97098H36.4933C36.5162 7.94811 36.5162 7.90237 36.5162 7.90237ZM44.0636 10.0523V9.59484L44.933 9.70919C44.8183 9.84642 44.704 10.0065 44.5667 10.1437C44.3381 10.1209 44.1782 10.098 44.0636 10.0523ZM44.3381 10.4182C44.2469 10.5326 44.1552 10.624 44.0636 10.7384V10.3725L44.3381 10.4182ZM44.0636 9.32038V8.93157L45.4818 9.02306C45.3675 9.16028 45.2528 9.32038 45.1616 9.45761L44.0636 9.32038ZM44.0636 8.65712V8.29118H45.985C45.8933 8.42841 45.779 8.61138 45.6647 8.77148L44.0636 8.65712ZM30.0208 6.75881C30.4782 6.75881 30.8441 6.89603 31.0957 7.17049C31.2787 7.35346 31.4159 7.60504 31.4846 7.92524L31.5303 8.01673H21.8329C21.6957 7.78801 21.4441 7.33059 21.4441 7.33059C21.4212 7.30772 21.2611 7.01039 20.9638 6.78168C25.6295 6.75881 30.0208 6.75881 30.0208 6.75881ZM23.4567 10.1666C23.3195 10.0294 23.2051 9.86929 23.0908 9.73207L23.9599 9.61771V10.0751L23.4567 10.1666ZM23.9371 10.3496V10.7155C23.8455 10.624 23.7541 10.5097 23.6626 10.4182C23.7769 10.3953 23.8684 10.3725 23.9371 10.3496ZM22.8621 9.48048C22.7477 9.34326 22.6334 9.18316 22.5419 9.04593L23.9371 8.95444V9.32038L22.8621 9.48048ZM23.9371 8.65712L22.3361 8.77148C22.2217 8.61138 22.1074 8.45128 22.0159 8.29118H23.9371V8.65712ZM10.7632 7.99385C10.5116 7.97098 10.443 7.94811 10.3744 7.81088C10.3744 7.81088 10.0542 7.26198 10.0313 7.21623C9.9856 7.12474 9.96274 7.03326 9.96274 6.98752C9.96274 6.85029 10.0542 6.75881 10.2829 6.75881H20.1175C20.7808 6.75881 21.1925 7.44494 21.1925 7.44494C21.284 7.60504 21.3755 7.78801 21.5127 7.99385H10.7632ZM12.1126 9.389C11.861 9.29751 11.7924 9.16029 11.7238 9.0688C11.5866 8.81722 11.3808 8.42841 11.2664 8.29118H21.6728C21.7643 8.45128 21.8786 8.61138 21.993 8.79434L12.8445 9.389C12.7301 9.41187 12.3185 9.41187 12.1126 9.389ZM13.8051 10.6927C13.4849 10.7384 13.3705 10.624 13.3477 10.6012L12.9131 9.82355C12.8674 9.77781 12.8445 9.70919 12.7987 9.68632C12.8445 9.68632 22.1988 9.0688 22.1988 9.0688C22.3132 9.20603 22.4276 9.389 22.519 9.52622L13.8051 10.6927ZM15.9092 11.5389C15.0172 11.2644 14.2625 11.0586 13.9423 10.9671L22.7477 9.77781C22.885 9.91504 22.9765 10.098 23.1365 10.2353L17.1214 11.4703C16.8698 11.516 16.2294 11.6304 15.9092 11.5389ZM18.9054 12.408C18.2192 12.2022 17.5331 11.9963 16.8698 11.8134C17.0528 11.7905 17.19 11.7676 17.19 11.7676C17.19 11.7676 21.5356 10.8756 23.3653 10.5097C23.5482 10.7155 23.7312 10.9214 23.9371 11.1043L19.9117 12.3622C19.866 12.3394 19.3171 12.5224 18.9054 12.408ZM22.0387 13.3228C21.9472 13.3 20.9866 13.0026 19.7516 12.6596C19.866 12.6367 19.9574 12.6138 19.9574 12.6138C19.9574 12.6138 23.3424 11.5618 24.12 11.333C24.4173 11.6075 24.7147 11.882 25.0577 12.1564L22.8621 13.1856C22.7477 13.2314 22.3361 13.4143 22.0387 13.3228ZM29.3347 11.2873L26.8646 13.0484C26.4529 12.7968 26.0183 12.4995 25.6066 12.2022C26.5215 11.7676 27.3906 11.3788 27.5507 11.2873H29.3347ZM30.0894 14.4664C29.5862 14.3292 29.1059 14.1462 28.6028 13.9632C29.632 12.8883 30.867 11.6075 31.1644 11.3102H31.9648L30.0894 14.4664ZM32.3079 11.2873H32.994L32.0106 14.8552C31.4617 14.7866 30.9356 14.6723 30.3867 14.535C31.0957 13.3228 32.0563 11.7218 32.3079 11.2873ZM28.3283 13.8489C27.9166 13.6659 27.5278 13.4601 27.1162 13.2542C28.2826 12.408 29.4947 11.5389 29.7921 11.333H30.7527L28.3283 13.8489ZM25.3551 11.9963C25.3322 11.9734 24.7604 11.4932 24.5317 11.2873H26.8874L25.3551 11.9963ZM23.7769 14.901C22.9307 14.5808 22.7935 14.2606 22.6791 13.9404C22.6563 13.8946 22.6105 13.7345 22.4504 13.5973C22.7477 13.5516 22.9765 13.4372 22.9993 13.4143C22.9993 13.4143 24.1657 12.8883 25.2865 12.3394C25.6981 12.6596 26.1327 12.9569 26.5672 13.2314L24.5317 14.6723C24.5546 14.718 24.1429 15.0153 23.7769 14.901ZM26.2242 15.61L24.4173 15.1068C24.6003 15.0382 24.7375 14.9467 24.7375 14.9238C24.7375 14.9238 25.7439 14.2148 26.8646 13.3915C27.2762 13.6202 27.6879 13.8489 28.1225 14.0319L26.956 15.2898C26.8417 15.4041 26.4986 15.6557 26.2242 15.61ZM28.74 16.2961L26.796 15.7701C27.0018 15.6557 27.139 15.5185 27.139 15.4956C27.139 15.4956 27.6879 14.901 28.3969 14.1919C28.9001 14.4207 29.4033 14.6036 29.9293 14.7409L29.2889 15.8158C29.2203 15.9531 28.9687 16.319 28.74 16.2961ZM31.576 16.319C31.576 16.319 31.5074 16.662 31.2558 16.8221C31.1415 16.8908 31.0271 16.8908 30.867 16.8679L29.1517 16.4105C29.3575 16.2504 29.4947 15.9988 29.5176 15.9531C29.5176 15.9531 29.8149 15.4499 30.2037 14.7866C30.7527 14.9238 31.3244 15.0382 31.8962 15.1068L31.576 16.319ZM32.0106 16.662C31.8734 16.7993 31.7361 16.8679 31.5989 16.8908C31.7819 16.662 31.8505 16.4105 31.8505 16.3876L32.1707 15.1754C32.5824 15.2211 33.0169 15.244 33.4515 15.2669C33.1542 15.61 32.0106 16.662 32.0106 16.662ZM33.8632 14.9925C33.3371 14.9925 32.7882 14.9467 32.2622 14.901L33.2456 11.3102H33.8403L33.8632 14.9925ZM24.2344 11.0128V8.26831H43.7893V11.0128H24.2344ZM36.0588 11.2873H36.8593L39.4209 13.9404C38.9406 14.1462 38.4374 14.3063 37.9342 14.4435L36.0588 11.2873ZM37.6369 14.535C37.1109 14.6723 36.562 14.7637 36.0131 14.8552L35.0296 11.2873H35.7157L37.6369 14.535ZM37.2481 11.2873H38.2087L40.8846 13.2085C40.4958 13.4372 40.0841 13.6202 39.6724 13.8031C38.8034 12.9112 37.7284 11.8134 37.2481 11.2873ZM38.689 11.2873H40.4501L42.3941 12.2022C41.9826 12.5224 41.5707 12.7968 41.1362 13.0713C40.2213 12.3851 39.215 11.6761 38.689 11.2873ZM41.1362 11.2873H43.4921C43.2631 11.516 42.6913 11.9963 42.6687 11.9963C42.0969 11.7447 41.548 11.4932 41.1362 11.2873ZM34.1605 14.9925V11.3102H34.7551L35.7386 14.901C35.2125 14.9696 34.6865 14.9925 34.1605 14.9925ZM35.7615 16.4333C35.7615 16.4333 34.8466 15.5414 34.5264 15.2669C34.961 15.244 35.3955 15.2211 35.8072 15.1754L36.1274 16.3876C36.1503 16.4333 36.196 16.7078 36.379 16.8908C36.1503 16.845 36.0817 16.7535 35.7615 16.4333ZM37.1566 16.8679C37.0194 16.9136 36.8822 16.8908 36.7678 16.8221C36.5391 16.6849 36.4476 16.3418 36.4476 16.319L36.1274 15.1297C36.6992 15.0611 37.271 14.9467 37.8199 14.8095L38.506 15.9759C38.5289 16.0217 38.6661 16.2504 38.872 16.4333L37.1566 16.8679ZM39.2836 16.2961C39.0549 16.3418 38.7805 15.9759 38.7118 15.8158L38.0714 14.7409C38.5975 14.6036 39.1236 14.4207 39.6038 14.1919L40.8617 15.4956C40.8846 15.5185 40.999 15.6329 41.2048 15.7701L39.2836 16.2961ZM42.0969 15.5185L41.7766 15.61C41.502 15.6786 41.1819 15.4041 41.0676 15.2898C41.0676 15.2898 40.5644 14.7637 39.8783 14.0547C40.29 13.8489 40.7245 13.643 41.1362 13.4143L43.2631 14.9467C43.2631 14.9467 43.4004 15.0382 43.5834 15.1297C43.1258 15.244 42.0969 15.5185 42.0969 15.5185ZM45.3445 13.9632C45.2072 14.2834 45.0929 14.5808 44.2469 14.9238C43.9036 15.0382 43.4691 14.718 43.4691 14.718C43.4691 14.718 42.5084 14.0319 41.4334 13.2542C41.8679 12.9798 42.3028 12.6824 42.7143 12.3622L45.0243 13.4372C45.0473 13.4372 45.2759 13.5744 45.5504 13.6202C45.4132 13.7803 45.3445 13.9404 45.3445 13.9632ZM45.985 13.3228C45.6877 13.3915 45.2759 13.2314 45.1386 13.1628C45.1386 13.1628 44.0636 12.6596 42.9429 12.1336C43.2631 11.8591 43.5834 11.5846 43.8806 11.3102L48.0433 12.591C48.0433 12.591 48.135 12.6367 48.2493 12.6367L45.985 13.3228ZM49.1183 12.408C48.7064 12.5224 48.135 12.3394 48.135 12.3394L44.1096 11.0815C44.3151 10.8756 44.4984 10.6698 44.6814 10.4868L50.8564 11.7447C50.8794 11.7447 50.9937 11.7905 51.1767 11.7905L49.1183 12.408ZM52.1144 11.5389C51.7941 11.6304 51.131 11.516 50.9251 11.4932C50.9251 11.4932 46.8084 10.6469 44.91 10.2581C45.0473 10.1209 45.1616 9.93791 45.2989 9.80068L54.1041 10.9671L52.1144 11.5389ZM55.1104 9.82355C55.1104 9.82355 54.7445 10.4639 54.6759 10.6012C54.6533 10.624 54.5386 10.7384 54.2184 10.6927L45.4588 9.52622C45.5961 9.36612 45.6877 9.20603 45.802 9.0688L55.0878 9.68632C55.1104 9.68632 55.1334 9.68632 55.2021 9.70919C55.1791 9.73206 55.1334 9.77781 55.1104 9.82355ZM56.6656 8.38266L56.2997 9.04593C56.2541 9.13741 56.1624 9.27464 55.9108 9.36612C55.7053 9.41187 55.2934 9.389 55.1334 9.36612L46.0076 8.77148C46.1223 8.5885 46.2366 8.42841 46.3278 8.26831H56.7116C56.7116 8.29118 56.6886 8.33692 56.6656 8.38266ZM57.9922 7.21623L57.6493 7.81088C57.5807 7.92524 57.535 7.97098 57.2604 7.99385H46.5108C46.6481 7.78801 46.7397 7.60504 46.831 7.44494C46.831 7.44494 47.2199 6.75881 47.906 6.75881H57.7406C57.8549 6.75881 57.9695 6.78168 58.0608 6.89603C58.0608 6.91891 58.1065 6.94178 58.1065 7.01039C58.0382 7.03326 58.0382 7.10188 57.9922 7.21623Z" fill="#161616"/>
<path d="M25.5377 8.70282H25.4691L24.6228 10.5783H24.8516V10.5554C24.9202 10.3267 24.9888 10.1208 25.0803 9.89212L25.1032 9.84638H25.7436C25.835 10.0522 25.9265 10.2581 26.018 10.5554V10.5783H26.3382L25.5377 8.70282ZM25.1489 9.73202C25.1718 9.68628 25.3776 9.18311 25.4005 9.1145C25.4234 9.16024 25.652 9.68628 25.6749 9.73202H25.1489ZM27.0929 9.50331C26.8871 9.4347 26.7041 9.36608 26.7041 9.13737C26.7041 8.97727 26.8413 8.84004 27.0243 8.84004C27.1615 8.84004 27.2759 8.90866 27.3445 9.06875V9.09163H27.3903L27.4589 8.86292C27.3445 8.77143 27.1844 8.72569 27.0701 8.72569C26.7041 8.72569 26.4754 8.93153 26.4754 9.22885C26.4754 9.54905 26.7041 9.64054 26.9328 9.73202C27.1158 9.80063 27.2988 9.86925 27.2988 10.098C27.2988 10.3038 27.1615 10.4639 26.9557 10.4639C26.7727 10.4639 26.6584 10.3953 26.544 10.2123H26.4525L26.4068 10.4639C26.4983 10.5783 26.727 10.624 26.8413 10.624C27.2302 10.624 27.5046 10.3724 27.5046 10.0065C27.5504 9.68628 27.2988 9.59479 27.0929 9.50331ZM29.037 8.93153V8.72569H27.6419V8.90865H27.6647C27.8248 8.88579 27.9849 8.86292 28.2136 8.86292V10.5325H28.4652V8.86292C28.6482 8.86292 28.8312 8.88579 28.9912 8.90865L29.037 8.93153ZM29.9518 8.70282C29.3572 8.70282 28.9684 9.09163 28.9684 9.66341C28.9684 10.2352 29.3801 10.624 29.9518 10.624C30.5465 10.624 30.981 10.2123 30.981 9.64053C30.981 9.00014 30.455 8.70282 29.9518 8.70282ZM30.455 10.2809C30.3178 10.4182 30.1577 10.4868 29.9747 10.4868C29.563 10.4868 29.2657 10.1666 29.2657 9.68628C29.2657 9.16024 29.5402 8.81717 29.9976 8.81717C30.2263 8.81717 30.4093 8.90866 30.5236 9.06875C30.6608 9.22885 30.6837 9.41182 30.6837 9.64053V9.68628C30.6837 9.86925 30.6151 10.098 30.455 10.2809ZM32.7879 8.74856H32.6278V10.098C32.6049 10.0751 31.3699 8.74856 31.3699 8.74856H31.2555V10.5783H31.4385V9.16024C31.4614 9.18311 32.582 10.4182 32.582 10.4182L32.7193 10.5783H32.8107L32.7879 8.74856ZM35.7611 8.74856L35.6925 8.72569L35.258 9.52618C35.258 9.52618 34.9835 10.0293 34.9378 10.0751C34.6633 9.61767 34.4346 9.13737 34.2059 8.72569H34.1144V8.74856C34.0915 9.02301 33.9315 10.1208 33.8628 10.5554V10.5783H34.0915V10.5554C34.0915 10.3038 34.1373 9.91499 34.183 9.50331C34.183 9.50331 34.2059 9.32034 34.2288 9.25172C34.2745 9.29747 34.5947 9.96073 34.7319 10.2352L34.8692 10.5554H34.9149V10.5325C35.0521 10.1895 35.2808 9.77776 35.5782 9.25172C35.6239 9.57192 35.6696 10.1895 35.7154 10.5554V10.5783H35.9898V10.5554C35.9441 10.1208 35.8526 9.52618 35.7611 8.74856ZM37.0191 8.70282H36.9504L36.1042 10.5783H36.3329V10.5554C36.4015 10.3267 36.4702 10.1208 36.5616 9.89212C36.5616 9.89212 36.5845 9.86925 36.5845 9.84638H37.2249C37.3164 10.0522 37.4079 10.2809 37.4993 10.5554V10.5783H37.8195L37.0191 8.70282ZM36.6531 9.73202C36.676 9.68628 36.8818 9.18311 36.9047 9.1145C36.9276 9.16024 37.1563 9.68628 37.1791 9.73202H36.6531ZM38.6429 9.68628C38.9631 9.61767 39.1689 9.4347 39.1689 9.18311C39.1689 8.90866 38.9631 8.77143 38.5743 8.77143H38.0025V10.6011H38.2541V9.70915H38.3227C38.3227 9.73202 38.5285 9.93786 38.5285 9.93786L38.8487 10.3495L39.0089 10.5783H39.3291C39.3519 10.5783 38.6429 9.70915 38.6429 9.68628ZM38.2541 9.57192V8.86292C38.3685 8.86292 38.5285 8.84004 38.62 8.86292C38.803 8.90866 38.8945 9.00014 38.8945 9.18311C38.8945 9.36608 38.7573 9.50331 38.5743 9.54905C38.4599 9.57192 38.2998 9.57192 38.2541 9.57192ZM40.6784 8.74856H39.3062V8.93153H39.3291C39.4891 8.90866 39.6493 8.88579 39.878 8.88579V10.5554H40.1295V8.88579C40.3125 8.88579 40.4955 8.90866 40.6556 8.93153H40.6784V8.74856ZM40.9072 8.74856H41.1588V10.5783H40.9072V8.74856ZM42.9425 10.098C42.9199 10.0751 41.6846 8.74856 41.6846 8.74856H41.5477V10.5783H41.7306V9.16024C41.7533 9.18311 42.8743 10.4182 42.8743 10.4182L43.0112 10.5783H43.1255V8.74856H42.9425V10.098ZM21.581 23.6377C19.8428 23.6377 18.4705 24.8041 18.4705 26.6339C18.4705 28.4407 19.7056 29.6071 21.5581 29.6071C23.4335 29.6071 24.7601 28.3721 24.7601 26.4966C24.783 24.5068 23.1591 23.6377 21.581 23.6377ZM21.6039 29.3327C20.3459 29.3327 19.3167 28.4407 19.3167 26.7482C19.3167 25.0329 20.2087 23.9122 21.6953 23.9122C22.3815 23.9122 23.0219 24.2095 23.4335 24.7127C23.8681 25.2845 23.9596 25.8791 23.9596 26.5653C24.0053 27.503 23.3649 29.3327 21.6039 29.3327ZM18.5391 24.0266C18.5391 23.935 18.562 23.8664 18.562 23.775H14.2393C14.2393 23.8664 14.2622 23.935 14.2622 24.0266C14.2622 24.118 14.2393 24.1866 14.2393 24.2781C14.7196 24.2324 15.2228 24.1866 16.069 24.1866V29.5385C16.1834 29.5385 16.2977 29.5156 16.4349 29.5156C16.5493 29.5156 16.6637 29.5385 16.8009 29.5385V24.1866C17.5556 24.1866 18.1503 24.2324 18.562 24.2781C18.562 24.2095 18.5391 24.118 18.5391 24.0266ZM11.2203 24.9871C11.2203 24.3925 11.7006 24.0037 12.2953 24.0037C12.7984 24.0037 13.1644 24.2781 13.3473 24.7355H13.4388C13.5074 24.5068 13.576 24.2552 13.6675 24.0494C13.3473 23.775 12.867 23.6377 12.4782 23.6377C11.4719 23.6377 10.6028 24.1638 10.6028 25.2616C10.6028 27.1599 13.233 26.4737 13.233 28.029C13.233 28.6923 12.7298 29.264 12.0665 29.264C11.4033 29.264 11.0373 28.9438 10.7171 28.3721H10.6257C10.5799 28.6236 10.5571 28.8752 10.4655 29.1268C10.7629 29.447 11.4261 29.63 11.8378 29.63C12.9814 29.63 13.9191 28.921 13.9191 27.7317C13.8734 25.902 11.2203 26.5195 11.2203 24.9871ZM30.0662 23.775V28.0976H29.9747L25.9951 23.775H25.6749V29.5156C25.7435 29.4928 25.8122 29.4928 25.9036 29.4928C25.9722 29.4928 26.0409 29.5156 26.1323 29.5156V24.9871H26.2238L29.8604 29.0125C30.0433 29.2183 30.2034 29.4242 30.2949 29.5156H30.5465V23.775C30.455 23.775 30.3864 23.7978 30.3178 23.7978C30.2034 23.7978 30.1348 23.775 30.0662 23.775ZM7.35508 23.6377L4.72488 29.5156C4.81637 29.4928 4.90785 29.4928 5.02221 29.4928C5.13656 29.4928 5.22805 29.5156 5.34241 29.5156C5.57112 28.7151 5.86845 27.9832 6.16577 27.2514H8.29279C8.613 28.029 8.9332 28.8066 9.18479 29.5156C9.32201 29.4928 9.48209 29.4928 9.61931 29.4928C9.75654 29.4928 9.8938 29.5156 10.0539 29.5156L7.53804 23.6606H7.35508V23.6377ZM6.34874 26.9083L7.26359 24.7584L8.20131 26.9083H6.34874ZM56.4823 23.775V29.5156C56.597 29.4928 56.7112 29.4928 56.8485 29.4928C56.9628 29.4928 57.0771 29.5156 57.2144 29.5156V23.775C57.0771 23.775 56.9628 23.7978 56.8485 23.7978C56.7112 23.7978 56.597 23.775 56.4823 23.775ZM51.1993 23.775C51.2219 23.8664 51.2219 23.935 51.2219 24.0266C51.2219 24.118 51.1993 24.1866 51.1993 24.2781C51.6795 24.2324 52.1827 24.1866 53.0291 24.1866V29.5385C53.1434 29.5385 53.2577 29.5156 53.395 29.5156C53.5092 29.5156 53.6235 29.5385 53.7608 29.5385V24.1866C54.5156 24.1866 55.1101 24.2324 55.522 24.2781C55.522 24.1866 55.4989 24.118 55.4989 24.0266C55.4989 23.935 55.522 23.8664 55.522 23.775H51.1993ZM50.6275 28.8295L48.912 26.6339C49.7584 26.4966 50.6275 26.0163 50.6275 25.0329C50.6275 24.1866 50.0557 23.775 48.7521 23.775H46.968V29.5156C47.0822 29.4928 47.1969 29.4928 47.3338 29.4928C47.4485 29.4928 47.5628 29.5156 47.7001 29.5156V26.7025H48.02L48.7061 27.503L49.6898 28.7838C49.8727 29.0125 50.0327 29.264 50.2156 29.5156C50.3529 29.4928 50.5358 29.4928 50.6961 29.4928C50.8561 29.4928 51.0164 29.5156 51.1993 29.5156L51.039 29.3098L50.6275 28.8295ZM47.7227 26.3823V24.0952C48.066 24.0723 48.6378 24.0494 48.9577 24.0952C49.5755 24.2095 49.8727 24.5754 49.8727 25.1701C49.8727 25.8333 49.4152 26.2451 48.7977 26.3594C48.3632 26.428 47.837 26.4051 47.7227 26.3823ZM39.9923 23.775H39.8093C38.9631 25.2845 38.1855 26.7253 37.385 28.1662C36.493 26.6796 35.6696 25.1015 35.0064 23.775H34.7777C34.6862 24.6669 34.183 28.1662 33.9772 29.5156C34.0687 29.4928 34.183 29.4928 34.2974 29.4928C34.3889 29.4928 34.4803 29.5156 34.5947 29.5156C34.5947 28.4864 34.8234 26.8168 35.0064 25.1929C35.5782 26.2679 36.1728 27.3886 36.6989 28.4864L37.1563 29.447H37.2478C37.7509 28.2806 38.4828 26.9541 39.4434 25.2158C39.5578 26.0392 39.7407 27.8689 39.8551 29.5385C39.9923 29.5156 40.1067 29.5156 40.2439 29.5156C40.3811 29.5156 40.4726 29.5385 40.6327 29.5385C40.4497 27.9146 40.221 25.8562 39.9923 23.775ZM63.2752 29.5156V23.7978C63.1839 23.7978 63.1152 23.8207 63.0466 23.8207C62.9549 23.8207 62.8863 23.7978 62.8176 23.7978V28.1205H62.7264L58.7466 23.7978H58.4264V29.5385C58.495 29.5156 58.5636 29.5156 58.6553 29.5156C58.7239 29.5156 58.7926 29.5385 58.8839 29.5385V25.01H58.9525L62.5891 29.0353C62.772 29.2412 62.9323 29.447 63.0236 29.5385L63.2752 29.5156ZM43.6747 23.6377L41.0444 29.4928C41.1359 29.4699 41.2274 29.4699 41.3417 29.4699C41.4334 29.4699 41.5247 29.4928 41.662 29.4928C41.8905 28.6923 42.1878 27.9604 42.4854 27.2285H44.6124C44.9326 28.0061 45.2528 28.7838 45.5044 29.4928C45.6414 29.4699 45.7787 29.4699 45.939 29.4699C46.0759 29.4699 46.2132 29.4928 46.3735 29.4928L43.8576 23.6377H43.6747ZM42.6683 26.9083L43.583 24.7584L44.5207 26.9083H42.6683Z" fill="#161616"/>
</svg>
