<?xml version="1.0" encoding="UTF-8"?>
<svg id="Ebene_1" xmlns="http://www.w3.org/2000/svg" xmlns:xlink="http://www.w3.org/1999/xlink" version="1.1" viewBox="0 0 637.6 633.3">
  <!-- Generator: Adobe Illustrator 30.3.0, SVG Export Plug-In . SVG Version: 2.1.3 Build 182)  -->
  <defs>
    <style>
      .st0 {
        isolation: isolate;
      }

      .st1 {
        fill: #e30613;
      }

      .st2 {
        display: none;
      }
    </style>
  </defs>
  <g id="Ebene_3" class="st2">
    <rect class="st1" x="-16.9" y="-8.6" width="671.7" height="650.6"/>
    <image class="st0" width="482" height="151" transform="translate(752.4 268.6) scale(.1)" xlink:href="auto3_black.png"/>
  </g>
  <g id="Ebene_2">
    <g id="Ebene_1-2">
      <g>
        <path class="st1" d="M292.7,195.9c-4.2,1.4-5.9,3.8-8,5.9-17.1,16.7-34.1,33.8-50.8,50.8-4.2,4.2-7.7,5.2-12.2.7-18.8-18.8-37.3-37.6-56.4-56.1-3.5-3.5-3.1-5.9,0-9.4,49.4-49.1,98.5-98.2,147.6-147.3,4.9-4.9,9.1-5.2,13.9,0,17.8,18.5,35.9,36.9,54,55,4.2,4.2,4.9,8.7,4.9,13.9v109.3c0,2.8-1.4,6.6,1.4,7.7,3.1,1.4,4.5-2.4,6.6-4.2,16.7-16.4,33.1-33.1,49.8-49.8,6.6-6.6,8.4-6.6,15,0,21.2,21.2,43.2,41.8,58.8,67.9,21.9,37.3,33.4,76.9,33.8,120.5.7,54.7-16.4,103.1-49.4,145.9-7.9,10.2-16.2,10.8-25.1,1.7-15.7-15.3-30.6-31.3-46.7-46.3-5.6-5.2-5.9-8.7-1-15,30.6-40.7,36.6-85.6,20.2-133.7-3.1-9.4-4.5-9.7-11.5-2.8-24.4,24-48.4,48-72.4,72.4-5.6,5.6-8.7,5.6-14.3,0-17.4-17.8-35.2-35.5-52.9-52.9-4.5-4.2-5.9-8.7-5.9-15v-119.1l.7-.3v.2Z"/>
        <path class="st1" d="M292.7,195.9c-4.2,1.4-5.9,3.8-8,5.9-17.1,16.7-34.1,33.8-50.8,50.8-4.2,4.2-7.7,5.2-12.2.7-18.8-18.8-37.3-37.6-56.4-56.1-3.5-3.5-3.1-5.9,0-9.4,49.4-49.1,98.5-98.2,147.6-147.3,4.9-4.9,9.1-5.2,13.9,0,17.8,18.5,35.9,36.9,54,55,4.2,4.2,4.9,8.7,4.9,13.9v109.3c0,2.8-1.4,6.6,1.4,7.7,3.1,1.4,4.5-2.4,6.6-4.2,16.7-16.4,33.1-33.1,49.8-49.8,6.6-6.6,8.4-6.6,15,0,21.2,21.2,43.2,41.8,58.8,67.9,21.9,37.3,33.4,76.9,33.8,120.5.7,54.7-16.4,103.1-49.4,145.9-7.9,10.2-16.2,10.8-25.1,1.7-15.7-15.3-30.6-31.3-46.7-46.3-5.6-5.2-5.9-8.7-1-15,30.6-40.7,36.6-85.6,20.2-133.7-3.1-9.4-4.5-9.7-11.5-2.8-24.4,24-48.4,48-72.4,72.4-5.6,5.6-8.7,5.6-14.3,0-17.4-17.8-35.2-35.5-52.9-52.9-4.5-4.2-5.9-8.7-5.9-15v-119.1l.7-.3v.2Z"/>
      </g>
      <path d="M316.7,593.5c-108.3,1.7-209.6-82.2-226-197.1-8.4-57.1,3.1-110.4,33.8-159.5,6.3-10.4,8-10.4,16.4-2.1,17.4,17.4,34.8,35.2,52.6,52.2,4.9,4.9,5.6,9.1,2.8,15.3-31.7,68.9-4.9,148.7,62,182.1,40.7,20.2,81.8,20.5,123.2,1,5.6-2.4,9.1-2.4,13.2,2.1,18.1,18.5,36.6,36.9,55,55.4,6.3,6.3,6.3,8.4-1.7,13.2-39,24.7-81.1,37.6-130.9,36.9l-.3.3v.2Z"/>
    </g>
  </g>
</svg>
